<!-- Generator: Adobe Illustrator 22.0.1, SVG Export Plug-In  -->
<svg version="1.1"
	 xmlns="http://www.w3.org/2000/svg" xmlns:xlink="http://www.w3.org/1999/xlink" xmlns:a="http://ns.adobe.com/AdobeSVGViewerExtensions/3.0/"
	 x="0px" y="0px" width="57.3px" height="57px" viewBox="0 0 57.3 57" style="enable-background:new 0 0 57.3 57;"
	 xml:space="preserve">
<style type="text/css">
	.st0{fill:#FFFFFF;}
</style>
<defs>
</defs>
<path class="st0" d="M54.2,17.6c0,0,0,0.2-0.1,0.3L37.3,41.3c-0.1,0.2-0.3,0.1-0.3,0.1l0,0l-8-3c-0.1,0,0-0.1,0-0.1l5.2-7.3
	c0,0,0.1-0.1,0.1-0.1c0.6,0.1,1.2,0.2,1.8,0.2c4.1,0,7.5-3.4,7.5-7.5c0-1.5-0.4-2.9-1.2-4.1h0c0-0.1,0-0.1,0-0.1L54,3.2
	c0,0,0.1-0.1,0.2,0V17.6z M54.2,53.8c0,0.1-0.1,0.2-0.2,0.2H3.3c-0.1,0-0.2-0.1-0.1-0.2L15.8,37c0,0,0.1-0.1,0.3-0.1l22,8l0,0
	c0,0,0.2,0,0.2,0l15.7-21.7c0.1-0.1,0.1-0.1,0.1,0V53.8z M3.1,48.7V36.9c0-0.1,0.1-0.2,0.2-0.2h8.8c0.1,0,0.1,0.1,0.1,0.1L3.3,48.8
	C3.1,49.2,3.1,48.8,3.1,48.7 M40.5,23.9c-0.1,2.4-2.2,4.5-4.6,4.4c-2.4-0.1-4.3-2.3-4.2-4.7c0.1-2.4,2.2-4.5,4.6-4.4
	C38.7,19.3,40.6,21.5,40.5,23.9 M3.1,3.2c0-0.1,0.1-0.2,0.2-0.2h47c0,0,0.2,0,0.1,0.1L40.2,17.3c-0.1,0.1-0.1,0-0.2,0v0
	c-1.1-0.7-2.5-1.1-3.9-1.1c-4.1,0-7.5,3.4-7.5,7.5c0,2.3,1.1,4.4,2.8,5.8l0,0c0.1,0.1,0,0.1,0,0.1L26,37.2c-0.1,0.1-0.2,0.1-0.2,0.1
	L16,33.8c-0.2-0.1-0.6-0.1-0.6-0.1H3.3c-0.1,0-0.2-0.1-0.2-0.2V3.2z M0,57h57.3V0H0V57z"/>
</svg>
