<svg id="Layer_1" data-name="Layer 1" xmlns="http://www.w3.org/2000/svg" width="700" height="186.34377" viewBox="0 0 700 186.34377"><title>CDPE-logo</title><polygon class="cls-1" points="679.416 96.478 666.36 75.257 674.263 75.257 683.118 90.07 692.151 75.257 700 75.257 686.26 96.478 686.26 111.098 679.416 111.098 679.416 96.478"/><path class="cls-1" d="M674.20018,149.707l13.5547,20.336c.5693.8808,1.5127,2.3847,2.1396,3.4531v-1.5664c0-2.6387-.06148-6.7188-.06148-10.1104V149.707h6.70608v35.9063h-6.2657l-13.999-21.3994c-.5693-.8809-1.1348-1.8243-1.56638-2.5811,0-.0537-.07132-.124-.07132-.1865,0,2.3223.07132,7.0264.07132,12.0498v12.1172h-6.71972V149.707Z" transform="translate(0 -1.82813)"/><path class="cls-1" d="M676.32808,18.8975a24.31364,24.31364,0,0,1-1.57608-2.5723c-.06162-.0596-.12022-.1201-.12022-.1865,0,2.3222.0586,6.9658.0586,12.0498V40.2432h-6.7109V4.40234h6.208L687.75,24.7422c.55658.8721,1.50878,2.3808,2.123,3.4463V26.6182c0-2.6973-.06252-6.7129-.06252-10.1016V4.40234h6.7286V40.2432h-6.2217Z" transform="translate(0 -1.82813)"/><path class="cls-1" d="M637.668,82.6055c-5.958,0-9.65632,4.7744-9.65632,12.374,0,7.6533,3.6358,12.2324,9.65632,12.2324a8.80659,8.80659,0,0,0,8.29388-5.2685l.0537-.2539,6.4698,2.7011-.1241.249a15.76264,15.76264,0,0,1-14.69328,8.9092c-10.53712,0-17.06552-7.084-17.06552-18.5693,0-5.4014,1.5752-10.043,4.5791-13.3731A16.31093,16.31093,0,0,1,637.668,76.4619a15.88865,15.88865,0,0,1,14.31438,8.2256l.1289.249-5.9668,3.7002-.1289-.3164C644.26658,84.5586,641.44138,82.6055,637.668,82.6055Z" transform="translate(0 -1.82813)"/><path class="cls-1" d="M246.09769,10.2363c-5.96,0-9.6582,4.7725-9.6582,12.3721,0,7.6533,3.6337,12.2324,9.6582,12.2324a8.79462,8.79462,0,0,0,8.288-5.2685l.0596-.2539,6.4678,2.6992-.12209.251a15.76946,15.76946,0,0,1-14.69331,8.9111c-10.5411,0-17.0674-7.0889-17.0674-18.5713,0-5.4023,1.5752-10.043,4.5771-13.374a16.31637,16.31637,0,0,1,12.4903-5.14161,15.88647,15.88647,0,0,1,14.3125,8.22363l.1269.249-5.9668,3.7002-.125-.3135C252.69429,12.1895,249.86429,10.2363,246.09769,10.2363Z" transform="translate(0 -1.82813)"/><path class="cls-1" d="M613.72848,31.3301a8.3905,8.3905,0,0,0,7.084,3.3262,8.61,8.61,0,0,0,7.1016-3.3262,14.88846,14.88846,0,0,0,2.50092-8.9776c0-7.7177-3.64062-12.4277-9.60252-12.4277-5.9629,0-9.6611,4.71-9.6611,12.4277C611.15138,26.0566,612.01948,29.1924,613.72848,31.3301Zm-5.3496-22.3467a17.44249,17.44249,0,0,1,24.8662,0c2.9453,3.3262,4.5742,7.9072,4.5742,13.3691s-1.5752,10.0411-4.4502,13.3096c-2.95408,3.4531-7.3418,5.208-12.5566,5.208-5.2734,0-9.5986-1.7549-12.6113-5.208-2.8926-3.2685-4.4004-7.8476-4.4004-13.3096S605.36718,12.3096,608.37888,8.9834Z" transform="translate(0 -1.82813)"/><path class="cls-1" d="M622.28908,176.7002a15.05443,15.05443,0,0,1-2.5-9.042c0-7.6543,3.7021-12.4238,9.5888-12.4238a1.2774,1.2774,0,0,1,.5117.0625c-5.6513.249-9.1621,4.957-9.1621,12.3613,0,3.7686.877,6.8438,2.5723,9.042a8.1718,8.1718,0,0,0,6.5898,3.2656,1.379,1.379,0,0,1-.5117.0576A8.76163,8.76163,0,0,1,622.28908,176.7002Z" transform="translate(0 -1.82813)"/><path class="cls-1" d="M617.96388,154.291c3.0088-3.3906,7.3427-5.1445,12.4326-5.1445,5.082,0,9.3447,1.7539,12.3574,5.1445,3.0127,3.3281,4.57912,7.9649,4.57912,13.3672,0,5.4639-1.5,10.1094-4.39162,13.3711-2.9512,3.3906-7.3379,5.2109-12.5449,5.2109-5.2774,0-9.6152-1.8203-12.6192-5.2109-2.8925-3.2617-4.3877-7.9072-4.3877-13.3711C613.38958,162.2559,614.94728,157.6191,617.96388,154.291Zm1.8252,13.3672a15.05443,15.05443,0,0,0,2.5,9.042,8.76163,8.76163,0,0,0,7.0888,3.3232,1.379,1.379,0,0,0,.5117-.0576,1.3092,1.3092,0,0,0,.5069.0576,8.553,8.553,0,0,0,7.0224-3.3232c1.6866-2.1982,2.5713-5.2734,2.5713-9.042,0-7.6543-3.6933-12.4238-9.5937-12.4238a1.21315,1.21315,0,0,0-.5069.0625,1.2774,1.2774,0,0,0-.5117-.0625C623.49118,155.2344,619.78908,160.0039,619.78908,167.6582Z" transform="translate(0 -1.82813)"/><rect class="cls-1" x="593.93068" y="75.25687" width="6.7724" height="35.8408"/><rect class="cls-1" x="581.877" y="147.87887" width="6.78119" height="35.9063"/><polygon class="cls-1" points="574.151 104.828 574.151 111.098 552.179 111.098 552.179 75.257 559.027 75.257 559.027 104.828 574.151 104.828"/><polygon class="cls-1" points="312.744 16.824 312.744 22.972 295.986 22.972 295.986 32.321 315.753 32.321 315.753 38.415 289.203 38.415 289.203 2.574 314.434 2.574 314.434 8.726 295.986 8.726 295.986 16.824 312.744 16.824"/><polygon class="cls-1" points="534.927 16.824 534.927 22.972 518.169 22.972 518.169 32.321 537.931 32.321 537.931 38.415 511.383 38.415 511.383 2.574 536.613 2.574 536.613 8.726 518.169 8.726 518.169 16.824 534.927 16.824"/><polygon class="cls-1" points="546.848 154.029 546.848 183.785 540.075 183.785 540.075 154.029 529.707 154.029 529.707 147.879 557.144 147.879 557.144 154.029 546.848 154.029"/><path class="cls-1" d="M525.69819,94.9795c0,3.7627-.8857,6.9014-2.5673,9.042a8.59249,8.59249,0,0,1-7.0352,3.3242,1.13977,1.13977,0,0,1-.51169-.0713,8.1987,8.1987,0,0,0,6.59369-3.2529c1.7002-2.1406,2.57231-5.2793,2.57231-9.042,0-7.4082-3.51071-12.1211-9.166-12.374a1.32488,1.32488,0,0,1,.51169-.0606C521.99119,82.5449,525.69819,87.3193,525.69819,94.9795Z" transform="translate(0 -1.82813)"/><path class="cls-1" d="M502.72359,81.6064A16.02422,16.02422,0,0,1,515.085,76.4619c5.09079,0,9.416,1.7529,12.42379,5.1445,3.0215,3.3301,4.583,7.9717,4.583,13.3731,0,5.458-1.499,10.1055-4.3916,13.3633-3.0029,3.3906-7.3379,5.206-12.61519,5.206-5.21,0-9.54891-1.8154-12.54791-5.206-2.8926-3.2578-4.4053-7.9053-4.4053-13.3633C498.13179,89.5781,499.70209,84.9365,502.72359,81.6064Zm5.2686,22.4151a8.78345,8.78345,0,0,0,7.09281,3.3242,1.05682,1.05682,0,0,0,.499-.0713,1.13977,1.13977,0,0,0,.51169.0713,8.59249,8.59249,0,0,0,7.0352-3.3242c1.6816-2.1406,2.5673-5.2793,2.5673-9.042,0-7.6602-3.707-12.4346-9.6025-12.4346a1.32488,1.32488,0,0,0-.51169.0606,1.2272,1.2272,0,0,0-.499-.0606c-5.89161,0-9.59771,4.7744-9.59771,12.4346C505.48729,98.7422,506.36329,101.8809,507.99219,104.0215Z" transform="translate(0 -1.82813)"/><path class="cls-1" d="M499.96089,171.4893h-.5654l-3.2041-10.3545c-.3115-.9434-.5605-1.8243-.7519-2.5762a5.95806,5.95806,0,0,0,.3164-1.002c.2578,1.0635.622,2.2608.99611,3.5782Z" transform="translate(0 -1.82813)"/><path class="cls-1" d="M491.54589,149.707h7.4756l.0576.1914,12.3037,35.7149H504.041l-2.63471-8.0322h-12.4327l-2.75,8.0322h-7.1015Zm2.5762,11.2989-3.1992,10.4834h9.038L496.752,161.1348c-.37411-1.3174-.73831-2.5147-.99611-3.5782a5.95806,5.95806,0,0,1-.3164,1.002,8.75718,8.75718,0,0,1-.254-1.002C494.88279,158.6875,494.50489,159.8174,494.12209,161.0059Z" transform="translate(0 -1.82813)"/><path class="cls-1" d="M466.752,77.085c4.40519,0,8.54289.1894,11.48919,2.7011a10.80432,10.80432,0,0,1,3.5772,8.2852,10.97655,10.97655,0,0,1-3.5772,8.4101c-2.9463,2.5118-7.084,2.6993-11.48919,2.6993h-5.27351v13.7451h-6.7724V77.085Zm5.65519,6.7216c-1.0097-.5078-2.3896-.6943-4.7744-.6943h-6.1543v9.9229h6.1543a11.271,11.271,0,0,0,4.832-.6983,5.03887,5.03887,0,0,0-.0576-8.5303Z" transform="translate(0 -1.82813)"/><path class="cls-1" d="M449.86909,176.4512c.5694-1.2598.752-2.5723.752-5.9014V149.707h6.7187v20.9639c0,5.0234-.4316,7.5283-1.8281,9.918-2.2519,3.7021-6.457,5.6513-12.1699,5.6513-5.6475,0-9.8525-1.9492-12.1084-5.6513-1.3887-2.3897-1.8193-4.8946-1.8193-9.918V149.707H436.124v20.8428c0,3.3291.19139,4.6416.752,5.9014,1.00579,2.3183,3.14159,3.4521,6.46579,3.4521C446.73629,179.9033,448.86329,178.7695,449.86909,176.4512Z" transform="translate(0 -1.82813)"/><polygon class="cls-1" points="417.964 8.726 417.964 38.415 411.187 38.415 411.187 8.726 400.886 8.726 400.886 2.574 428.252 2.574 428.252 8.726 417.964 8.726"/><polygon class="cls-1" points="405.438 177.506 405.438 183.785 383.465 183.785 383.465 147.879 390.305 147.879 390.305 177.506 405.438 177.506"/><path class="cls-1" d="M402.61229,110.54a14.61348,14.61348,0,0,1-8.9795,3.0088c-10.043,0-16.5713-7.2802-16.5713-18.5693,0-11.0508,6.9014-18.5176,17.1983-18.5176a15.88665,15.88665,0,0,1,14.3105,8.2256l.1875.249-5.959,3.7002-.1289-.3164c-1.8193-3.7617-4.58689-5.7148-8.4101-5.7148-6.0205,0-9.794,4.7744-9.794,12.374,0,7.7119,3.7735,12.4287,9.794,12.4287,5.2783,0,8.03221-2.6436,8.4814-8.1016h-10.6123V93.0352h17.002v20.6464h-6.5186Z" transform="translate(0 -1.82813)"/><path class="cls-1" d="M339.39839,149.707h7.4688v.1914l12.3066,35.7149h-7.2802l-2.7032-8.0322h-12.4287l-2.7646,8.0322h-7.0869Zm2.51861,11.2989-3.21291,10.4834h8.4883l-3.1455-10.3545c-.4365-1.3174-.75489-2.5147-1.0664-3.5782C342.66019,158.6875,342.28609,159.8174,341.917,161.0059Z" transform="translate(0 -1.82813)"/><path class="cls-1" d="M336.88669,103.7676c1.0078,2.3144,3.1397,3.4443,6.4746,3.4443,3.3838,0,5.5196-1.1299,6.5235-3.4443.5713-1.1963.7431-2.5742.7431-5.8399V77.085h6.7256V97.9873c0,5.0244-.4404,7.5342-1.8867,9.919-2.1865,3.7021-6.4053,5.6425-12.1055,5.6425-5.7138,0-9.8564-1.9404-12.1172-5.6425-1.3877-2.3848-1.8886-4.8946-1.8886-9.919V77.085h6.7793V97.9277C336.13479,101.1934,336.32129,102.5713,336.88669,103.7676Z" transform="translate(0 -1.82813)"/><path class="cls-1" d="M293.32809,173.6875c.3223,1.0635.6875,2.5674.9385,3.5732l1.0127-3.5732,7.458-23.9805h7.0322l-11.5976,35.9063H290.126l-.12891-.1875L278.959,149.707h7.16009l.0557.25Z" transform="translate(0 -1.82813)"/><rect class="cls-1" x="288.55269" y="81.28417" width="0.1895" height="9.5469"/><path class="cls-1" d="M288.74219,98.8066v14.1192h-6.8369V77.085h13.2451c2.6982,0,6.1494,0,8.9863,1.6377a10.09086,10.09086,0,0,1,5.2061,9.2841,10.44307,10.44307,0,0,1-4.84179,8.9151,14.24308,14.24308,0,0,1-2.44051,1.1279l8.9083,14.876h-8.1006l-8.2207-14.1192Zm0-6.1474h6.4082a17.099,17.099,0,0,0,2.876-.1983,5.6957,5.6957,0,0,0,2.0185-.5,4.42061,4.42061,0,0,0,2.2666-4.1367,4.16375,4.16375,0,0,0-2.331-4.0176,4.20652,4.20652,0,0,0-1.0596-.3203,12.0873,12.0873,0,0,0-3.7705-.374h-6.5977v9.5469Z" transform="translate(0 -1.82813)"/><path class="cls-1" d="M463.37889,26.1221V40.2432h-6.835V4.40039h13.2422c2.7061,0,6.1494,0,8.9893,1.63672a10.08886,10.08886,0,0,1,5.206,9.28519,10.438,10.438,0,0,1-4.8418,8.915,14.28381,14.28381,0,0,1-2.4384,1.1279l8.9082,14.878h-8.0977l-8.2236-14.1211Zm0-6.1475h6.4072a17.08867,17.08867,0,0,0,2.87891-.1982,5.703,5.703,0,0,0,2.01659-.4981,4.42053,4.42053,0,0,0,2.2686-4.1387,4.03237,4.03237,0,0,0-3.3906-4.3388,12.10289,12.10289,0,0,0-3.7735-.3731h-6.5947v9.5469Z" transform="translate(0 -1.82813)"/><path class="cls-1" d="M350.24319,4.40234l13.5009,20.33986c.6182.8721,1.5791,2.3808,2.2022,3.4463V26.6182c-.07129-2.6973-.07129-6.7129-.07129-10.1016V4.40234h6.72359V40.2432h-6.2158l-13.9971-21.3457c-.63669-.8789-1.1865-1.878-1.63369-2.5723,0-.0596-.06161-.1201-.06161-.1865,0,2.3222.06161,6.9658.06161,12.0498V40.2432H344.04V4.40234Z" transform="translate(0 -1.82813)"/><path class="cls-1" d="M256.35939,109.1611c-3.834,3.7647-8.15239,3.7647-14.6826,3.7647h-9.9766V77.085h10.1641c5.63771,0,9.3466,0,12.9902,2.5146,4.2637,3.0762,6.7129,8.7832,6.7129,15.3086C261.56739,100.8799,259.75679,105.957,256.35939,109.1611Zm-5.5225-23.7881c-1.9473-1.6933-4.3916-1.9472-9.1601-1.9472h-3.1455v23.2881h3.8261c3.64061,0,6.7842,0,8.9824-2.0743,1.5108-1.5703,3.0723-5.1484,3.0723-9.5371C254.41209,90.835,253.09279,87.3799,250.83689,85.373Z" transform="translate(0 -1.82813)"/><polygon class="cls-1" points="255.233 168.277 238.477 168.277 238.477 177.631 258.243 177.631 258.243 183.785 231.7 183.785 231.7 147.879 256.979 147.879 256.979 154.029 238.477 154.029 238.477 162.194 255.233 162.194 255.233 168.277"/><path class="cls-1" d="M0,1.82813V188.1719H187.1182V1.82813Zm10.0391,10.419a.76063.76063,0,0,1,.7607-.7832H164.2881s.4922,0,.2295.3535L131.2402,58.3828a.34282.34282,0,0,1-.5009.1133v.0088A24.48944,24.48944,0,0,0,102.4209,98.335l-.0195-.0088a.28252.28252,0,0,1,.0976.3974L84.9248,123.4453a.66879.66879,0,0,1-.7119.1865h0l-31.9365-11.458a8.83788,8.83788,0,0,0-2.085-.3388H10.7998a.75891.75891,0,0,1-.7607-.7784ZM132.3594,79.9707c-.3428,7.9678-7.1026,14.5645-15.0694,14.2354-7.9785-.3428-14.1591-7.4913-13.832-15.4434.3311-7.9805,7.0947-14.582,15.0733-14.2354C126.5059,64.8594,132.7041,71.9941,132.3594,79.9707ZM10.0391,160.8271V122.2568a.75442.75442,0,0,1,.7607-.7695H39.5166c.4297.04.4355.249.3096.4805L10.8535,161.4326C10.0391,162.5498,10.0391,161.3389,10.0391,160.8271ZM177.0723,177.75a.758.758,0,0,1-.7608.7744H10.9219c-.3975-.0176-.7119-.1689-.336-.7392l41.168-54.9815a.76524.76524,0,0,1,.8828-.1777h0l71.8369,26.1113h0l.0655.0313a.71484.71484,0,0,0,.7578-.1465l51.3886-70.8272c.1778-.2051.376-.3291.3868.1309Zm0-118.4014a2.18682,2.18682,0,0,1-.3243,1.1407l-54.7929,76.4209a.86882.86882,0,0,1-1.0137.3291l-.0361-.0176h0l-26.1514-9.6914a.26775.26775,0,0,1-.1357-.4102l16.9404-23.793h0a.51927.51927,0,0,1,.4668-.1826h0a24.44119,24.44119,0,0,0,30.3721-23.7832,24.36738,24.36738,0,0,0-3.9825-13.3789h.0205a.34741.34741,0,0,1,0-.4004l38.128-53.3906s.3515-.4844.5088-.0664Z" transform="translate(0 -1.82813)"/></svg>