<svg id="Layer_1" data-name="Layer 1" xmlns="http://www.w3.org/2000/svg" width="294.01559" height="245.1289" viewBox="0 0 294.01559 245.1289"><title>ocad-logo</title><path class="cls-1" d="M411.86909,444.6768V379.4541h106.3672V199.5479H338.40819v57.5742H224.22069v122.332h114.1875v65.2227Zm-179.5996-73.4649V265.3623h106.1387V371.2119Zm171.5508,65.2227H346.457V379.4541h57.36329Zm106.1738-65.2227H346.457V207.7861H509.99409Z" transform="translate(-224.22069 -199.5479)"/><path class="cls-1" d="M262.90039,310.2275a16.22476,16.22476,0,0,1-6.27339-1.1914,15.423,15.423,0,0,1-4.97471-3.2422,14.85348,14.85348,0,0,1-3.27929-4.8085,14.62605,14.62605,0,0,1-1.19531-5.8907v-.082a14.94527,14.94527,0,0,1,4.5196-10.7656,15.59929,15.59929,0,0,1,5.0156-3.2578,17.14419,17.14419,0,0,1,12.53911,0,15.41239,15.41239,0,0,1,4.97069,3.2402,14.9685,14.9685,0,0,1,3.2812,4.8027,14.73945,14.73945,0,0,1,1.1934,5.8965v.084a14.94215,14.94215,0,0,1-4.5157,10.7617,15.78922,15.78922,0,0,1-5.0195,3.2617A16.15942,16.15942,0,0,1,262.90039,310.2275Zm.0605-7.3164a7.38546,7.38546,0,0,0,3.0567-.625,7.06541,7.06541,0,0,0,2.3515-1.6953,7.889,7.889,0,0,0,1.50591-2.4883,8.27114,8.27114,0,0,0,.54879-3.0078v-.082a8.315,8.315,0,0,0-.54879-3.0117,7.76863,7.76863,0,0,0-1.54881-2.5078,7.67833,7.67833,0,0,0-2.3946-1.7344,7.12125,7.12125,0,0,0-3.05459-.6465,7.21676,7.21676,0,0,0-3.043.627,7.29693,7.29693,0,0,0-3.85161,4.1796,8.666,8.666,0,0,0-.5273,3.0098v.084a8.4382,8.4382,0,0,0,.54691,3.0117,7.91,7.91,0,0,0,1.53119,2.5039,7.375,7.375,0,0,0,2.3672,1.7363A7.12181,7.12181,0,0,0,262.96089,302.9111Z" transform="translate(-224.22069 -199.5479)"/><path class="cls-1" d="M309.07619,310.2275a15.42048,15.42048,0,0,1-5.8926-1.1328,14.4082,14.4082,0,0,1-4.7871-3.1523,15.264,15.264,0,0,1-4.4121-10.8477v-.082A15.25851,15.25851,0,0,1,298.377,284.208a14.6,14.6,0,0,1,4.86909-3.2383,15.92564,15.92564,0,0,1,6.1641-1.1679,17.399,17.399,0,0,1,4.0957.4375,13.56592,13.56592,0,0,1,6.125,3.1914,16.39474,16.39474,0,0,1,2.1953,2.4687l-6.1055,4.7285a10.61559,10.61559,0,0,0-2.7539-2.5136,6.92921,6.92921,0,0,0-3.6367-.918,6.4484,6.4484,0,0,0-2.8203.6055,6.65218,6.65218,0,0,0-2.1973,1.6523,7.89316,7.89316,0,0,0-1.4453,2.4648,8.79941,8.79941,0,0,0-.5215,3.0098v.084a9.09769,9.09769,0,0,0,.5215,3.0703,7.84014,7.84014,0,0,0,1.4453,2.4844,6.69043,6.69043,0,0,0,2.1973,1.6562,6.47575,6.47575,0,0,0,2.8203.6035,7.98014,7.98014,0,0,0,2.0664-.248,6.33273,6.33273,0,0,0,1.7109-.7344,8.95162,8.95162,0,0,0,1.4668-1.1289,16.71756,16.71756,0,0,0,1.3594-1.4414l6.0996,4.3496a21.7027,21.7027,0,0,1-2.2793,2.6348,13.25964,13.25964,0,0,1-2.79689,2.0859,14.50822,14.50822,0,0,1-3.51361,1.3789A17.57854,17.57854,0,0,1,309.07619,310.2275Z" transform="translate(-224.22069 -199.5479)"/><path class="cls-1" d="M295.47459,326.1885h11.2813a21.35537,21.35537,0,0,1,7.0039,1.0664,14.75,14.75,0,0,1,5.1816,2.9883,12.81065,12.81065,0,0,1,3.2207,4.5761,15.14961,15.14961,0,0,1,1.1035,5.834v.084a15.11169,15.11169,0,0,1-1.125,5.8711,13.12353,13.12353,0,0,1-3.26359,4.6543,15.06969,15.06969,0,0,1-5.24421,3.0801,20.911,20.911,0,0,1-7.043,1.1074h-11.1152Zm11.4199,22.0722a8.64816,8.64816,0,0,0,5.8711-1.9277,6.81456,6.81456,0,0,0,2.2266-5.4687v-.086a6.83794,6.83794,0,0,0-2.2266-5.4531,8.58916,8.58916,0,0,0-5.8711-1.9473h-3.3144v14.8828Z" transform="translate(-224.22069 -199.5479)"/><path class="cls-1" d="M375.06049,422.6455a17.49822,17.49822,0,0,1-5.332-.75,10.36637,10.36637,0,0,1-4.0293-2.3086,10.16075,10.16075,0,0,1-2.5449-3.9492,16.08967,16.08967,0,0,1-.8906-5.6289V394.4912H370.082v15.3613a6.23822,6.23822,0,0,0,1.37309,4.4414,4.83507,4.83507,0,0,0,3.6875,1.4434,4.966,4.966,0,0,0,3.6797-1.3828,5.89532,5.89532,0,0,0,1.373-4.3008V394.4912h7.8164v15.3262a16.21276,16.21276,0,0,1-.92769,5.7793,10.0074,10.0074,0,0,1-6.67581,6.2988A17.67412,17.67412,0,0,1,375.06049,422.6455Z" transform="translate(-224.22069 -199.5479)"/><path class="cls-1" d="M368.81249,237.3516a7.81071,7.81071,0,0,1-3.0093-.5723,7.404,7.404,0,0,1-2.38719-1.5547,7.1898,7.1898,0,0,1-1.57521-2.3066,7.06775,7.06775,0,0,1-.57179-2.8291v-.0401a7.15664,7.15664,0,0,1,2.167-5.166,7.55323,7.55323,0,0,1,2.40729-1.5644,8.19772,8.19772,0,0,1,6.0185,0,7.40729,7.40729,0,0,1,2.38721,1.5546,7.17627,7.17627,0,0,1,1.57519,2.3067,7.06588,7.06588,0,0,1,.57181,2.8291v.04a7.1564,7.1564,0,0,1-2.167,5.166,7.55334,7.55334,0,0,1-2.40721,1.5645A7.81248,7.81248,0,0,1,368.81249,237.3516Zm.0298-3.5108a3.5082,3.5082,0,0,0,1.46871-.3017,3.35556,3.35556,0,0,0,1.12649-.8125,3.76338,3.76338,0,0,0,.7241-1.1934,3.99552,3.99552,0,0,0,.2617-1.4443v-.0401a3.99944,3.99944,0,0,0-.2617-1.4443,3.70369,3.70369,0,0,0-.7441-1.2041,3.65586,3.65586,0,0,0-1.14649-.832,3.41079,3.41079,0,0,0-1.46881-.3116,3.45342,3.45342,0,0,0-1.4584.3008,3.496,3.496,0,0,0-1.8511,2.0069,4.13992,4.13992,0,0,0-.2515,1.4443v.04a3.99606,3.99606,0,0,0,.2617,1.4444,3.793,3.793,0,0,0,.7344,1.2041,3.53468,3.53468,0,0,0,1.13671.832A3.40707,3.40707,0,0,0,368.84229,233.8408Z" transform="translate(-224.22069 -199.5479)"/><path class="cls-1" d="M385.99369,237.3516a7.39521,7.39521,0,0,1-2.8291-.542,6.91605,6.91605,0,0,1-2.2969-1.5147,7.29912,7.29912,0,0,1-2.11669-5.206v-.0401a7.32964,7.32964,0,0,1,2.10639-5.1865,7.05359,7.05359,0,0,1,2.3374-1.5547,7.65714,7.65714,0,0,1,2.959-.5615,8.47569,8.47569,0,0,1,1.9663.2109,6.73972,6.73972,0,0,1,1.6148.6016,6.48363,6.48363,0,0,1,1.3242.9326,7.74522,7.74522,0,0,1,1.0532,1.1836l-2.9292,2.2676a5.05886,5.05886,0,0,0-1.3237-1.2041,3.28929,3.28929,0,0,0-1.7456-.4414,3.119,3.119,0,0,0-1.354.291,3.23355,3.23355,0,0,0-1.0533.793,3.692,3.692,0,0,0-.6923,1.1836,4.13935,4.13935,0,0,0-.2505,1.4443v.04a4.29035,4.29035,0,0,0,.2505,1.4746,3.67843,3.67843,0,0,0,.6923,1.1934,3.23494,3.23494,0,0,0,1.0533.793,3.12,3.12,0,0,0,1.354.29,3.85379,3.85379,0,0,0,.9931-.1201,3.03569,3.03569,0,0,0,.8223-.3506,4.45943,4.45943,0,0,0,.7021-.542,8.04584,8.04584,0,0,0,.6524-.6924l2.9287,2.0869a10.4102,10.4102,0,0,1-1.0933,1.2637,6.27188,6.27188,0,0,1-1.3442,1.0029,6.99179,6.99179,0,0,1-1.6851.6622A8.41814,8.41814,0,0,1,385.99369,237.3516Z" transform="translate(-224.22069 -199.5479)"/><path class="cls-1" d="M399.45209,222.9268h3.7515l5.9785,14.1435h-4.1728l-1.023-2.5078h-5.417l-1.0029,2.5078h-4.0923Zm3.4107,8.6269-1.5649-3.9932-1.585,3.9932Z" transform="translate(-224.22069 -199.5479)"/><path class="cls-1" d="M411.38919,223.0273h5.417a10.20726,10.20726,0,0,1,3.3603.5118,7.09949,7.09949,0,0,1,2.4873,1.4336,6.13683,6.13683,0,0,1,1.5449,2.1972,7.19649,7.19649,0,0,1,.5318,2.7989v.04a7.22864,7.22864,0,0,1-.54149,2.8183,6.33968,6.33968,0,0,1-1.565,2.2374,7.23959,7.23959,0,0,1-2.518,1.4746,10.0426,10.0426,0,0,1-3.38041.5312h-5.3364Zm5.4829,10.5928a4.15732,4.15732,0,0,0,2.8188-.9228,3.28732,3.28732,0,0,0,1.0674-2.6289v-.0401a3.294,3.294,0,0,0-1.0674-2.6181,4.13243,4.13243,0,0,0-2.8188-.9327h-1.5908v7.1426Z" transform="translate(-224.22069 -199.5479)"/><path class="cls-1" d="M368.07029,259.5049a8.95875,8.95875,0,0,1-2.7085-.3809,5.24962,5.24962,0,0,1-2.0464-1.1738,5.18431,5.18431,0,0,1-1.2939-2.0059,8.2037,8.2037,0,0,1-.4512-2.8593v-7.8838h3.9722v7.8037a3.17447,3.17447,0,0,0,.6963,2.2568,2.4617,2.4617,0,0,0,1.8716.7324,2.51581,2.51581,0,0,0,1.871-.7021,2.998,2.998,0,0,0,.6968-2.1865v-7.9043h3.9722v7.7842a8.225,8.225,0,0,1-.4717,2.9384,5.09119,5.09119,0,0,1-3.3901,3.2002A9.06106,9.06106,0,0,1,368.07029,259.5049Z" transform="translate(-224.22069 -199.5479)"/><path class="cls-1" d="M378.17289,245.2012H381.812l5.79009,7.4228v-7.4228h3.832v14.0429h-3.418l-6.0112-7.7041v7.7041h-3.832Z" transform="translate(-224.22069 -199.5479)"/><path class="cls-1" d="M395.14359,245.2012h3.9121v14.0429h-3.9121Z" transform="translate(-224.22069 -199.5479)"/><path class="cls-1" d="M401.29249,245.2012h4.353l3.1899,8.8867,3.19-8.8867h4.2729l-5.6972,14.1435h-3.6114Z" transform="translate(-224.22069 -199.5479)"/><path class="cls-1" d="M418.49459,245.2012h11.2749v3.3095h-7.4428v2.127h6.7407v3.0693h-6.7407v2.2266h7.5429v3.3105h-11.375Z" transform="translate(-224.22069 -199.5479)"/><path class="cls-1" d="M433.15189,245.2012h6.6406a8.22421,8.22421,0,0,1,2.74851.4013,4.70408,4.70408,0,0,1,1.82569,1.1231,4.34008,4.34008,0,0,1,1.2437,3.2705v.04a4.41291,4.41291,0,0,1-.7823,2.6875,4.94126,4.94126,0,0,1-2.1064,1.625l3.3501,4.8955h-4.4937l-2.8286-4.2529h-1.7056v4.2529h-3.892Zm6.4599,6.7402a2.35186,2.35186,0,0,0,1.5449-.4512,1.498,1.498,0,0,0,.5415-1.2138v-.0401a1.45344,1.45344,0,0,0-.5615-1.2539,2.574,2.574,0,0,0-1.5449-.4111h-2.5479v3.3701Z" transform="translate(-224.22069 -199.5479)"/><path class="cls-1" d="M454.13229,259.4854a10.88517,10.88517,0,0,1-3.581-.586,8.67058,8.67058,0,0,1-2.9991-1.7558l2.1666-2.5938a7.14959,7.14959,0,0,0,4.5541,1.6856,2.316,2.316,0,0,0,1.1934-.251.78706.78706,0,0,0,.4116-.711v-.04a.75761.75761,0,0,0-.1006-.3906,1.01877,1.01877,0,0,0-.371-.3301,3.87207,3.87207,0,0,0-.7222-.3106q-.4512-.1494-1.1738-.3105-1.12365-.2592-2.0865-.5703a6.35847,6.35847,0,0,1-1.67479-.8018,3.41516,3.41516,0,0,1-1.53461-3.0332v-.04a4.32623,4.32623,0,0,1,.371-1.8027,3.99713,3.99713,0,0,1,1.0831-1.4219,5.08881,5.08881,0,0,1,1.7153-.9307,7.21639,7.21639,0,0,1,2.2671-.331,10.09977,10.09977,0,0,1,3.2197.4746,8.11523,8.11523,0,0,1,2.5581,1.4033l-1.9458,2.7568a7.86739,7.86739,0,0,0-1.9761-1.0332,5.95638,5.95638,0,0,0-1.956-.3515,1.75837,1.75837,0,0,0-1.0532.2607.77341.77341,0,0,0-.3511.6406v.0401a.7896.7896,0,0,0,.1103.4209.993.993,0,0,0,.3809.33,4.22226,4.22226,0,0,0,.7422.3008q.4716.1494,1.1938.3106a17.04027,17.04027,0,0,1,2.1768.6103,6.5102,6.5102,0,0,1,1.6553.8516,3.40553,3.40553,0,0,1,1.0429,1.2109,3.69713,3.69713,0,0,1,.3614,1.6924v.04a4.32636,4.32636,0,0,1-.4117,1.9229,4.12407,4.12407,0,0,1-1.1533,1.4316,5.23494,5.23494,0,0,1-1.7856.9014A8.14269,8.14269,0,0,1,454.13229,259.4854Z" transform="translate(-224.22069 -199.5479)"/><path class="cls-1" d="M462.84129,245.2012h3.9121v14.0429h-3.9121Z" transform="translate(-224.22069 -199.5479)"/><path class="cls-1" d="M473.37109,248.6113h-4.2129v-3.4101h12.3179v3.4101h-4.2129v10.6328h-3.8921Z" transform="translate(-224.22069 -199.5479)"/><path class="cls-1" d="M488.54389,253.9883l-5.3364-8.7871h4.4336l2.8887,5.1152,2.90921-5.1152h4.35349l-5.3364,8.7265v5.3164h-3.9122Z" transform="translate(-224.22069 -199.5479)"/><path class="cls-1" d="M266.84569,326.0869h-7.8125l-12.4609,29.4649h8.5312l1.875-4.6895h11.7153l1.9136,4.6895h8.6953Zm-7.5019,18.4942,3.52921-8.8457,3.502,8.8457Z" transform="translate(-224.22069 -199.5479)"/></svg>