<svg id="Layer_1" data-name="Layer 1" xmlns="http://www.w3.org/2000/svg" width="4.30917in" height="0.92072in" viewBox="0 0 310.2602 66.292"><title>SM-logo</title><path class="cls-1" d="M137.3491,375.60741h2.1836V391.584h-2.1836Z" transform="translate(-135.6968 -330.97561)"/><path class="cls-1" d="M143.5874,380.04491h2.0156v1.6094a4.72444,4.72444,0,0,1,3.7422-1.8945c2.4473,0,3.4063,1.6054,3.4063,3.6211V391.584h-2.0391v-7.79689c0-1.3906-.4805-2.2539-1.9414-2.2539a4.34787,4.34787,0,0,0-3.168,1.9922V391.584h-2.0156Z" transform="translate(-135.6968 -330.97561)"/><path class="cls-1" d="M155.2046,390.791l.8398-1.50979a5.05024,5.05024,0,0,0,2.8555.9356c1.3906,0,2.2539-.55081,2.2539-1.5352,0-1.0078-.9355-1.414-2.6133-2.1601-1.7773-.7656-3.0703-1.60551-3.0703-3.52351,0-1.84759,1.4375-3.23819,3.7891-3.23819a5.7518,5.7518,0,0,1,3.4765,1.0547l-.9101,1.4628a4.22292,4.22292,0,0,0-2.543-.8398c-1.2226,0-1.8711.5527-1.8711,1.4629,0,1.0312.961,1.4394,2.2539,1.9668,1.8477.791,3.5039,1.6074,3.5039,3.55079,0,2.15821-1.6328,3.47851-4.2226,3.47851A6.58747,6.58747,0,0,1,155.2046,390.791Z" transform="translate(-135.6968 -330.97561)"/><path class="cls-1" d="M165.7866,380.04491h2.0156v1.2246a4.215,4.215,0,0,1,3.3106-1.5097c2.8301,0,4.7012,2.205,4.7012,6.0195,0,3.6445-2.1348,6.09369-5.1328,6.09369a4.122,4.122,0,0,1-2.879-.98429v5.9492h-2.0156Zm7.8438,5.7813c0-2.49421-.9336-4.3164-2.9961-4.3164a3.75746,3.75746,0,0,0-2.8321,1.5351v6.1172a3.69785,3.69785,0,0,0,2.6153,1.0078C172.5288,390.16991,173.6304,388.36911,173.6304,385.82621Z" transform="translate(-135.6968 -330.97561)"/><path class="cls-1" d="M178.1479,376.59181a1.41505,1.41505,0,0,1,2.8301,0,1.41505,1.41505,0,1,1-2.8301,0Zm.3848,3.4531h2.0625V391.584h-2.0625Z" transform="translate(-135.6968 -330.97561)"/><path class="cls-1" d="M184.2905,380.04491h2.0157v1.752a3.735,3.735,0,0,1,3.0468-2.0371,3.03219,3.03219,0,0,1,1.2949.23819l-.5019,1.89461a2.26875,2.26875,0,0,0-1.0566-.1914c-1.6543,0-2.5918,1.8476-2.7832,2.2304V391.584h-2.0157Z" transform="translate(-135.6968 -330.97561)"/><path class="cls-1" d="M191.564,385.73241c0-3.4316,2.207-5.9726,5.3007-5.9726,2.92579,0,4.629,2.0371,4.629,5.2754,0,.2871-.0235.5761-.0469.8886H193.7476c.0703,2.3008,1.0312,4.2696,3.5019,4.2696a5.88215,5.88215,0,0,0,3.14259-.98441l.791,1.48831a6.97786,6.97786,0,0,1-4.02929,1.17569C193.4585,391.873,191.564,389.209,191.564,385.73241Zm7.89059-1.3672c-.0469-1.5605-.7422-2.9511-2.63669-2.9511-1.752,0-2.711,1.2226-3,2.9511Z" transform="translate(-135.6968 -330.97561)"/><path class="cls-1" d="M203.228,385.82621c0-3.6446,2.20709-6.0664,5.10939-6.0664a4.28483,4.28483,0,0,1,2.9023.957v-6.4023h2.0157V389.041a12.21481,12.21481,0,0,0,.3125,2.543h-2.0391a7.2642,7.2642,0,0,1-.21679-1.32029,4.14969,4.14969,0,0,1-3.31051,1.60929C205.19479,391.873,203.228,389.68951,203.228,385.82621Zm8.01169,2.7597v-6.1406a3.708,3.708,0,0,0-2.6132-.9824c-2.0879,0-3.2149,1.7969-3.2149,4.3398s.8867,4.293,3.0703,4.293A3.571,3.571,0,0,0,211.23969,388.58591Z" transform="translate(-135.6968 -330.97561)"/><path class="cls-1" d="M221.03659,383.54881c0-4.3183,2.90241-8.2265,7.9141-8.2265a7.70693,7.70693,0,0,1,4.5351,1.2226l-1.0566,1.6055a6.03244,6.03244,0,0,0-3.5254-1.0313c-3.6953,0-5.58979,3.0235-5.58979,6.38089,0,3.40621,1.82419,6.54881,5.63669,6.54881a5.75772,5.75772,0,0,0,3.86331-1.3437l.957,1.5351a7.44593,7.44593,0,0,1-4.86721,1.63279C223.84129,391.873,221.03659,387.86521,221.03659,383.54881Z" transform="translate(-135.6968 -330.97561)"/><path class="cls-1" d="M235.36469,388.72851c0-3.0449,3.3086-3.98051,6.1641-3.98051h.4785v-1.00779c0-1.582-.6699-2.2539-2.2304-2.2539a4.39274,4.39274,0,0,0-2.9981,1.22269l-1.00779-1.36719a5.87951,5.87951,0,0,1,4.17379-1.582c2.6621,0,4.0781,1.19919,4.0781,3.90819v5.13471a12.08508,12.08508,0,0,0,.2872,2.78129h-2.0157a8.366,8.366,0,0,1-.19139-1.36719,4.34022,4.34022,0,0,1-3.40621,1.65619A3.07536,3.07536,0,0,1,235.36469,388.72851Zm6.6426-.0703v-2.4961h-.4785c-2.3516,0-4.0547.6484-4.0547,2.4961a1.52536,1.52536,0,0,0,1.63091,1.5352A3.57908,3.57908,0,0,0,242.00729,388.65821Z" transform="translate(-135.6968 -330.97561)"/><path class="cls-1" d="M247.48189,380.04491h2.0157v1.752a3.735,3.735,0,0,1,3.0468-2.0371,3.03323,3.03323,0,0,1,1.295.23819l-.502,1.89461a2.26875,2.26875,0,0,0-1.0566-.1914c-1.6543,0-2.59179,1.8476-2.7832,2.2304V391.584h-2.0157Z" transform="translate(-135.6968 -330.97561)"/><path class="cls-1" d="M254.75539,385.73241c0-3.4316,2.207-5.9726,5.3008-5.9726,2.9257,0,4.6289,2.0371,4.6289,5.2754,0,.2871-.0235.5761-.0469.8886H256.939c.07029,2.3008,1.03119,4.2696,3.50189,4.2696a5.88216,5.88216,0,0,0,3.1426-.98441l.791,1.48831a6.97784,6.97784,0,0,1-4.0293,1.17569C256.64989,391.873,254.75539,389.209,254.75539,385.73241Zm7.89061-1.3672c-.04691-1.5605-.74221-2.9511-2.63671-2.9511-1.752,0-2.711,1.2226-3,2.9511Z" transform="translate(-135.6968 -330.97561)"/><path class="cls-1" d="M266.70649,390.21681a1.56116,1.56116,0,0,1,1.584-1.5586,1.57036,1.57036,0,1,1-1.584,1.5586Z" transform="translate(-135.6968 -330.97561)"/><path class="cls-1" d="M278.25149,375.60741h2.1816V391.584h-2.1816Z" transform="translate(-135.6968 -330.97561)"/><path class="cls-1" d="M284.48969,380.04491h2.0157v1.6094a4.72144,4.72144,0,0,1,3.7422-1.8945c2.4453,0,3.4062,1.6054,3.4062,3.6211V391.584h-2.0391v-7.79689c0-1.3906-.4804-2.2539-1.9433-2.2539a4.34045,4.34045,0,0,0-3.166,1.9922V391.584h-2.0157Z" transform="translate(-135.6968 -330.97561)"/><path class="cls-1" d="M296.10689,390.791l.8399-1.50979a5.03645,5.03645,0,0,0,2.8535.9356c1.3926,0,2.2559-.55081,2.2559-1.5352,0-1.0078-.9375-1.414-2.6153-2.1601-1.7754-.7656-3.0703-1.60551-3.0703-3.52351,0-1.84759,1.4395-3.23819,3.7891-3.23819a5.75411,5.75411,0,0,1,3.4785,1.0547l-.91019,1.4628a4.22769,4.22769,0,0,0-2.54291-.8398c-1.2247,0-1.87109.5527-1.87109,1.4629,0,1.0312.95889,1.4394,2.25389,1.9668,1.8476.791,3.5019,1.6074,3.5019,3.55079,0,2.15821-1.63079,3.47851-4.2207,3.47851A6.588,6.588,0,0,1,296.10689,390.791Z" transform="translate(-135.6968 -330.97561)"/><path class="cls-1" d="M306.689,380.04491h2.01609v1.2246a4.21051,4.21051,0,0,1,3.3086-1.5097c2.832,0,4.7031,2.205,4.7031,6.0195,0,3.6445-2.13479,6.09369-5.13279,6.09369a4.11349,4.11349,0,0,1-2.87891-.98429v5.9492H306.689Zm7.84419,5.7813c0-2.49421-.9355-4.3164-2.998-4.3164a3.7564,3.7564,0,0,0-2.8301,1.5351v6.1172a3.69216,3.69216,0,0,0,2.6133,1.0078C313.42969,390.16991,314.53319,388.36911,314.53319,385.82621Z" transform="translate(-135.6968 -330.97561)"/><path class="cls-1" d="M319.04879,376.59181a1.41605,1.41605,0,0,1,2.8321,0,1.41605,1.41605,0,0,1-2.8321,0Zm.3848,3.4531h2.0625V391.584h-2.0625Z" transform="translate(-135.6968 -330.97561)"/><path class="cls-1" d="M325.19339,380.04491H327.209v1.752a3.73222,3.73222,0,0,1,3.04689-2.0371,3.04953,3.04953,0,0,1,1.2949.23819l-.5039,1.89461a2.26248,2.26248,0,0,0-1.0567-.1914c-1.6543,0-2.5898,1.8476-2.78119,2.2304V391.584h-2.01561Z" transform="translate(-135.6968 -330.97561)"/><path class="cls-1" d="M333.209,376.59181a1.416,1.416,0,0,1,2.832,0,1.416,1.416,0,0,1-2.832,0Zm.38479,3.4531h2.0625V391.584h-2.0625Z" transform="translate(-135.6968 -330.97561)"/><path class="cls-1" d="M339.35349,380.04491h2.0156v1.6094a4.71818,4.71818,0,0,1,3.7403-1.8945c2.4472,0,3.4062,1.6054,3.4062,3.6211V391.584h-2.039v-7.79689c0-1.3906-.47859-2.2539-1.9434-2.2539a4.33738,4.33738,0,0,0-3.1641,1.9922V391.584h-2.0156Z" transform="translate(-135.6968 -330.97561)"/><path class="cls-1" d="M351.08789,394.07811a3.43013,3.43013,0,0,1,1.9687-2.95111,1.75751,1.75751,0,0,1-1.0312-1.70319,2.30053,2.30053,0,0,1,1.1992-1.8945,3.93355,3.93355,0,0,1-2.0391-3.5488c0-2.4473,1.8223-4.2207,4.7247-4.2207a5.65091,5.65091,0,0,1,1.8476.2851h3.8379v1.5117h-1.7266a3.9976,3.9976,0,0,1,.7657,2.4239c0,2.4218-1.7969,4.2207-4.6993,4.2207a5.7113,5.7113,0,0,1-1.2968-.1446,1.03926,1.03926,0,0,0-.6953.9141c0,.6211.7187.8379,1.7754.8867,2.4941.14459,5.9003-.02341,5.9003,3.5254,0,2.3984-2.66209,3.8848-5.8046,3.8848C353.10349,397.26761,351.08789,396.334,351.08789,394.07811Zm8.4687-.57611c0-1.70319-1.5117-1.70319-2.9257-1.79689-.7207-.0489-1.46489-.0742-2.1114-.168a2.61849,2.61849,0,0,0-1.4394,2.2774c0,1.0546.8398,1.9179,2.8301,1.9179C358.11719,395.73241,359.55659,394.84571,359.55659,393.502Zm-.9843-9.52149a2.66215,2.66215,0,1,0-2.6621,2.6621A2.49127,2.49127,0,0,0,358.57229,383.98051Z" transform="translate(-135.6968 -330.97561)"/><path class="cls-1" d="M368.08009,390.24021l1.0566-1.5351a5.15542,5.15542,0,0,0,3.6231,1.3672c1.8945,0,3.11721-1.19931,3.11721-2.543,0-1.82231-1.79891-2.5664-3.64651-3.4766-1.9668-.9609-3.67-2.039-3.67-4.582,0-2.63871,2.23051-4.1484,4.75-4.1484a6.7048,6.7048,0,0,1,4.293,1.2929l-1.0078,1.584a5.26331,5.26331,0,0,0-3.26169-1.0801c-1.53521,0-2.66211.8633-2.66211,2.25589,0,1.53521,1.2949,2.20511,2.9023,2.95121,2.1113,1.00579,4.461,2.0859,4.461,5.1562,0,2.5899-2.1348,4.39059-5.3243,4.39059A6.74555,6.74555,0,0,1,368.08009,390.24021Z" transform="translate(-135.6968 -330.97561)"/><path class="cls-1" d="M379.81639,385.80271c0-3.9336,2.4707-6.0429,5.4707-6.0429a5.4506,5.4506,0,0,1,3.5234,1.1015l-.8632,1.4883a4.13445,4.13445,0,0,0-2.6602-.9121c-2.2812,0-3.3125,1.8711-3.3125,4.3184,0,2.3984,1.0313,4.414,3.35941,4.414a4.60278,4.60278,0,0,0,2.75779-.914l.7676,1.4882a5.61993,5.61993,0,0,1-3.6465,1.12889C381.73629,391.873,379.81639,389.06451,379.81639,385.80271Z" transform="translate(-135.6968 -330.97561)"/><path class="cls-1" d="M390.97659,376.59181a1.415,1.415,0,0,1,2.83,0,1.415,1.415,0,1,1-2.83,0Zm.3847,3.4531h2.0625V391.584h-2.0625Z" transform="translate(-135.6968 -330.97561)"/><path class="cls-1" d="M396.13479,385.73241c0-3.4316,2.207-5.9726,5.3027-5.9726,2.9258,0,4.6289,2.0371,4.6289,5.2754,0,.2871-.02339.5761-.0488.8886h-7.6992c.0722,2.3008,1.0312,4.2696,3.5039,4.2696a5.8803,5.8803,0,0,0,3.1406-.98441l.793,1.48831a6.99156,6.99156,0,0,1-4.0313,1.17569C398.03129,391.873,396.13479,389.209,396.13479,385.73241Zm7.8925-1.3672c-.0488-1.5605-.7441-2.9511-2.6386-2.9511-1.75,0-2.711,1.2226-2.9981,2.9511Z" transform="translate(-135.6968 -330.97561)"/><path class="cls-1" d="M408.78319,380.04491h2.0156v1.6094a4.72173,4.72173,0,0,1,3.74221-1.8945c2.44529,0,3.40629,1.6054,3.40629,3.6211V391.584h-2.0391v-7.79689c0-1.3906-.4805-2.2539-1.9434-2.2539a4.34081,4.34081,0,0,0-3.166,1.9922V391.584h-2.0156Z" transform="translate(-135.6968 -330.97561)"/><path class="cls-1" d="M420.40039,385.80271c0-3.9336,2.4687-6.0429,5.4687-6.0429a5.462,5.462,0,0,1,3.5254,1.1015l-.8632,1.4883a4.14067,4.14067,0,0,0-2.6622-.9121c-2.2793,0-3.3105,1.8711-3.3105,4.3184,0,2.3984,1.0312,4.414,3.35741,4.414a4.59167,4.59167,0,0,0,2.75779-.914l.7696,1.4882a5.62509,5.62509,0,0,1-3.6465,1.12889C422.31839,391.873,420.40039,389.06451,420.40039,385.80271Z" transform="translate(-135.6968 -330.97561)"/><path class="cls-1" d="M430.81449,385.73241c0-3.4316,2.207-5.9726,5.3027-5.9726,2.92581,0,4.6289,2.0371,4.6289,5.2754,0,.2871-.0234.5761-.0488.8886H432.998c.07229,2.3008,1.03129,4.2696,3.504,4.2696a5.8803,5.8803,0,0,0,3.14059-.98441l.7929,1.48831a6.99117,6.99117,0,0,1-4.0312,1.17569C432.71089,391.873,430.81449,389.209,430.81449,385.73241Zm7.89251-1.3672c-.04881-1.5605-.74411-2.9511-2.63861-2.9511-1.75,0-2.711,1.2226-2.9981,2.9511Z" transform="translate(-135.6968 -330.97561)"/><path class="cls-1" d="M442.76759,390.21681a1.56063,1.56063,0,0,1,1.582-1.5586,1.57073,1.57073,0,1,1,0,3.1406A1.56567,1.56567,0,0,1,442.76759,390.21681Z" transform="translate(-135.6968 -330.97561)"/><path class="cls-1" d="M135.6968,354.03421l1.8359-2.8438a8.07392,8.07392,0,0,0,5.291,1.9414c2.6641,0,4.2832-1.54681,4.2832-3.3476,0-2.4844-2.6289-3.3477-5.3984-4.75-2.9531-1.4414-5.3633-3.1328-5.3633-7.0196,0-4.0312,3.3828-6.4062,7.4141-6.4062a10.60258,10.60258,0,0,1,6.6953,1.9805l-1.7637,2.8789a8.42718,8.42718,0,0,0-4.7871-1.5469c-2.1601,0-3.6367,1.1133-3.6367,3.0234,0,2.086,1.9082,2.9141,4.3555,4.0313,3.1679,1.4726,6.4804,3.0937,6.4804,7.6289,0,4.10549-3.2402,6.8398-8.2793,6.8398a10.64239,10.64239,0,0,1-7.1269-2.4101Z" transform="translate(-135.6968 -330.97561)"/><path class="cls-1" d="M154.4878,351.37011v-9.8633h-2.8066v-2.9179h2.8066v-5h3.8144v5h4.2129v2.9179h-4.2129v9.25c0,1.7266.4688,2.5196,1.8731,2.5196a4.5305,4.5305,0,0,0,2.3027-.7188l1.0821,2.8789a8.23684,8.23684,0,0,1-4.0704,1.0078c-3.5625,0-5.0019-1.94531-5.0019-5.0742Z" transform="translate(-135.6968 -330.97561)"/><path class="cls-1" d="M164.855,354.13961a2.1966,2.1966,0,0,1,4.3926,0,2.1963,2.1963,0,0,1-4.3926,0Z" transform="translate(-135.6968 -330.97561)"/><path class="cls-1" d="M178.0679,332.03811h3.9218l5.3282,15.4805c.6113,1.8359,1.0429,3.27339,1.332,4.246h.0703c.2891-.9375.7207-2.4101,1.3692-4.246l5.4003-15.4805h3.92189l3.27541,23.9726h-4.13871l-1.76559-13.8554c-.2148-1.7305-.3594-2.8438-.3945-3.4219h-.0723c-.1797.6484-.5039,1.8008-1.0449,3.3867l-4.7852,13.8906h-3.9609l-4.8594-13.8906c-.5039-1.5508-.8633-2.7383-1.0781-3.3867h-.0742c-.0352.68359-.1426,1.8711-.3242,3.4922l-1.6914,13.7851h-3.7071l3.2774-23.9726Z" transform="translate(-135.6968 -330.97561)"/><path class="cls-1" d="M205.15379,333.69821a2.19559,2.19559,0,0,1,4.3906,0,2.1953,2.1953,0,1,1-4.3906,0Z" transform="translate(-135.6968 -330.97561)"/><polygon class="cls-1" points="69.73 7.613 73.582 7.613 73.582 25.035 69.73 25.035 69.73 7.613 69.73 7.613"/><path class="cls-1" d="M211.978,347.29981c0-5.9023,3.77929-9.1406,8.63869-9.1406a8.91975,8.91975,0,0,1,5.3301,1.5469l-1.4063,2.6992a6.4172,6.4172,0,0,0-3.85149-1.2227c-3.168,0-4.67971,2.5195-4.67971,6.0117,0,3.4532,1.51171,6.1914,4.7539,6.1914a7.30047,7.30047,0,0,0,3.9922-1.2265l1.2617,2.6289a8.53762,8.53762,0,0,1-5.543,1.6562c-5.3633,0-8.49609-3.9961-8.49609-9.1445Z" transform="translate(-135.6968 -330.97561)"/><path class="cls-1" d="M228.35689,330.97561h3.8164v9.8828a7.15839,7.15839,0,0,1,5.543-2.6992c3.7461,0,5.1836,2.4453,5.1836,5.5429v12.3086h-3.8164v-11.5156c0-1.9453-.6836-3.0625-2.6602-3.0625-2.1992,0-3.8906,2.1602-4.25,2.6289v11.9492h-3.8164v-25.0351Z" transform="translate(-135.6968 -330.97561)"/><path class="cls-1" d="M255.28469,351.54981v-3.4922H254.603c-3.20311,0-5.47261.8985-5.47261,3.3477a2.08716,2.08716,0,0,0,2.3047,2.0859,4.8399,4.8399,0,0,0,3.8496-1.9414Zm-9.97069.0703c0-4.53511,4.85929-6.082,9.289-6.082h.68169v-1.2617c0-2.086-.9004-2.98441-3.1309-2.98441a6.69075,6.69075,0,0,0-4.46479,1.76171l-1.79691-2.4492a9.64828,9.64828,0,0,1,6.6562-2.4453c4.3204,0,6.55471,1.8359,6.55471,6.1562v7.0899a22.07871,22.07871,0,0,0,.42969,4.6054h-3.7773a15.81309,15.81309,0,0,1-.2891-1.9765,6.43094,6.43094,0,0,1-5.0391,2.4101c-2.9179,0-5.11319-1.8007-5.11319-4.8242Z" transform="translate(-135.6968 -330.97561)"/><path class="cls-1" d="M273.46629,345.14361c-.0742-2.1993-1.0098-4.0704-3.5664-4.0704-2.3398,0-3.6328,1.6211-4.0664,4.0704Zm-11.7344,2.0507c0-5.3281,3.4883-9.0351,8.2422-9.0351,4.6797,0,7.2696,3.0937,7.2696,8.207,0,.46879-.0352,1.00779-.0704,1.5117h-11.375c.17971,3.0938,1.5469,5.5782,4.92971,5.5782a8.79887,8.79887,0,0,0,4.64459-1.3672l1.332,2.6289a11.1064,11.1064,0,0,1-6.2617,1.7265c-5.6875,0-8.711-3.8867-8.711-9.25Z" transform="translate(-135.6968 -330.97561)"/><polygon class="cls-1" points="144.68 0 148.496 0 148.496 25.035 144.68 25.035 144.68 0 144.68 0"/><path class="cls-1" d="M288.04829,336.50291c0-1.3672-1.4062-1.6211-1.4062-3.1328a1.81244,1.81244,0,0,1,1.9453-1.7617,2.3692,2.3692,0,0,1,2.3398,2.5547,10.364,10.364,0,0,1-2.2695,5.6875h-1.9414a6.20106,6.20106,0,0,0,1.332-3.3477Z" transform="translate(-135.6968 -330.97561)"/><path class="cls-1" d="M291.14209,354.78811l1.4023-2.7344a7.74914,7.74914,0,0,0,4.2832,1.4375c1.9825,0,3.168-.7187,3.168-2.0156,0-1.3672-1.6191-1.836-4.1387-2.9844-2.5547-1.1523-4.2832-2.44921-4.2832-5.2226,0-3.0235,2.3399-5.1094,6.0469-5.1094a9.64155,9.64155,0,0,1,5.40041,1.5117l-1.51171,2.66409a6.81924,6.81924,0,0,0-3.78129-1.18749c-1.76171,0-2.625.7187-2.625,1.9062,0,1.4024,1.51169,1.8711,3.45319,2.6641,2.8085,1.1523,5.0781,2.4101,5.0781,5.3633,0,3.41789-2.5586,5.3984-6.625,5.3984a10.11332,10.11332,0,0,1-5.8672-1.6914Z" transform="translate(-135.6968 -330.97561)"/></svg>