<svg id="Layer_1" data-name="Layer 1" xmlns="http://www.w3.org/2000/svg" width="4in" height="0.74547in" viewBox="0 0 288 53.67363"><title>UCSD-logo</title><path class="cls-1" d="M34.93236,28.3197c0,8.51206-1.24457,14.976-14.172,14.976-12.85926,0-14.8542-6.21361-14.8542-14.97595V7.62383C5.90619,2.95977,3.92224,2.52538.5,2.52538V1.28552H16.84385V2.52538c-3.35419,0-5.40628.43439-5.40628,5.09845V28.3197c0,6.33821,1.495,12.549,9.5679,12.549,8.95844,0,10.37994-5.1559,10.37994-12.549V7.62383c0-4.66406-2.04668-5.09845-5.40088-5.09845V1.28552H40.33864V2.52538c-3.41654,0-5.40628.43439-5.40628,5.09845Z" transform="translate(-0.5 -0.66319)"/><path class="cls-1" d="M69.30207,41.61669a31.46058,31.46058,0,0,1-11.12462,1.679c-12.42732,0-18.39594-9.44506-18.39594-22.68265C39.78151,9.114,43.50539.66319,56.8072.66319a45.34634,45.34634,0,0,1,11.93774,1.7366l.55713,9.76055h-1.552c-.81262-3.48174-3.29185-9.07587-11.00522-9.07587-9.99985,0-10.81248,10.62837-10.81248,17.02893,0,8.01836,1.74466,20.38519,15.35429,20.38519a19.53369,19.53369,0,0,0,8.01541-1.55436Z" transform="translate(-0.5 -0.66319)"/><path class="cls-1" d="M102.68261,10.233c-.56293-3.29087-3.05216-7.14849-9.6983-7.14849-4.16633,0-7.83317,2.67236-7.83317,6.77644,0,5.53089,7.40074,7.33367,12.80741,10.50278,4.911,2.85941,8.19766,5.40629,8.19766,11.31207,0,7.8908-6.83839,11.61989-15.34909,11.61989a68.834,68.834,0,0,1-10.68727-1.18231L79.68261,33.351h1.5572c.49478,3.29381,3.41655,7.1476,10.0674,7.1476,5.469,0,9.01077-3.54125,9.01077-7.83326,0-6.7084-10.31769-8.76039-16.09887-13.17426a9.3277,9.3277,0,0,1-4.037-8.328c0-7.45543,6.15666-10.49993,13.97932-10.49993a44.28815,44.28815,0,0,1,9.64066,1.05486l.43243,8.51491Z" transform="translate(-0.5 -0.66319)"/><path class="cls-1" d="M131.55727,42.728a15.8941,15.8941,0,0,1-4.03112.49763c-3.20848,0-4.15111-1.656-4.15111-4.03407h-.11459a8.79457,8.79457,0,0,1-7.849,4.03407c-3.81265,0-6.63033-2.65419-6.63033-6.24719,0-8.01629,10.39585-8.01629,14.5939-8.4066V26.47567c0-3.87293-.05705-7.96071-4.69814-7.96071-3.42705,0-3.8696,1.43741-3.8696,3.20848a2.60987,2.60987,0,0,1-2.599,2.87473,2.48382,2.48382,0,0,1-2.651-2.49022c0-3.593,5.35935-5.41581,9.1771-5.41581,7.57287,0,8.95323,3.64573,8.95323,8.78631V39.19157c0,1.93505.66112,2.59676,2.38,2.59676a7.00851,7.00851,0,0,0,1.48965-.21867ZM123.375,30.39948c-2.59911.05753-9.67719.55526-9.67719,5.69869,0,2.87189,1.88575,4.80693,3.76562,4.80693,3.594,0,5.91157-3.48459,5.91157-7.24245Z" transform="translate(-0.5 -0.66319)"/><path class="cls-1" d="M132.776,41.73364c2.31769,0,4.198-.49479,4.198-4.08877V22.551c0-3.31777-2.59911-3.48469-4.198-3.594v-.93968l8.51068-1.32519v7.29617h.1141c.771-2.0463,3.25551-7.29617,8.72976-7.29617,5.86463,0,6.416,3.20269,6.416,8.34622V37.64487c0,3.594,1.88045,4.08877,4.198,4.08877v.94263H148.03064v-.94263c2.31858,0,4.20374-.49479,4.20374-4.08877V26.25416c0-4.75509-.05175-6.91165-3.709-6.91165-3.25453,0-7.23872,6.24522-7.23872,11.5v6.80236c0,3.594,1.87466,4.08877,4.20286,4.08877v.94263H132.776Z" transform="translate(-0.5 -0.66319)"/><path class="cls-1" d="M167.07326,41.42865c3.359,0,5.4111-.43528,5.4111-5.09364V7.62383c0-4.66406-2.05209-5.09845-5.4111-5.09845V1.28552h14.54647c10.31288,0,21.25007,2.23718,21.25007,20.75527,0,18.4578-11.49432,20.63548-21.25007,20.63548H167.07326ZM178.01044,35.03c0,4.5366.49959,5.22119,3.60929,5.22119,10.68777,0,15.0987-5.71883,15.0987-18.21036,0-11.43765-3.29086-18.3331-15.0987-18.3331-3.1097,0-3.60929.375-3.60929,5.2212Z" transform="translate(-0.5 -0.66319)"/><path class="cls-1" d="M205.12984,41.73364c2.3282,0,4.20866-.49479,4.20866-4.08877V22.551c0-3.31777-2.54205-3.48469-4.20866-3.594v-.93968l8.5208-1.32519V37.64487c0,3.594,1.87554,4.08877,4.198,4.08877v.94263H205.12984Zm3.04745-33.28127a3.14849,3.14849,0,1,1,3.14515,3.15084A3.11086,3.11086,0,0,1,208.17729,8.45237Z" transform="translate(-0.5 -0.66319)"/><path class="cls-1" d="M237.86458,42.22842a17.73707,17.73707,0,0,1-6.58369.99722c-8.56772,0-13.37466-4.70049-13.37466-13.98737,0-8.07295,3.26023-12.54613,11.219-12.54613,4.97385,0,9.45862,2.7625,9.45862,9.17367v1.21688H222.49449c0,4.64295,2.261,14.09862,11.5,14.09862a9.142,9.142,0,0,0,3.87009-.71915Zm-4.20276-16.97149c0-2.92746-1.00017-6.742-5.25-6.742-4.20384,0-5.91736,4.69764-5.91736,6.742Z" transform="translate(-0.5 -0.66319)"/><path class="cls-1" d="M256.55156,38.25189c2.64654,0,8.78729.11223,8.78729,6.2467,0,6.30188-6.1925,9.83822-13.54728,9.83822-5.4168,0-11.05216-2.04619-11.05216-7.02093,0-3.42666,2.542-4.91867,4.313-5.80661a4.28954,4.28954,0,0,1-2.38093-3.92194c0-2.04619,1.77117-4.14522,2.38093-4.81262-1.27628-1.04907-3.20838-2.70506-3.20838-7.40555,0-7.13032,5.19242-8.677,10.44229-8.677a10.67063,10.67063,0,0,1,5.70351,1.37693c.88028-2.09617,2.20261-5.91354,5.57792-5.91354a2.49378,2.49378,0,0,1,2.65616,2.65047,2.35635,2.35635,0,0,1-2.59861,2.49208c-1.43742,0-1.77108-.77571-2.49023-.77571-1.213,0-1.70783,1.60709-1.98875,2.48737a9.2846,9.2846,0,0,1,2.48354,6.6375c0,5.58077-3.4789,8.73456-10.10874,8.73456a12.16848,12.16848,0,0,1-5.0313-.8304,3.98252,3.98252,0,0,0-.99536,2.48639c0,2.2141,2.76074,2.2141,4.5318,2.2141Zm-9.56692,3.9238c-1.10946.82844-2.65135,1.76822-2.65135,4.25608,0,3.26209,2.92176,6.08321,7.73449,6.08321,5.03129,0,9.67709-2.59862,9.67709-6.578,0-2.82063-2.3176-3.7613-5.08884-3.7613Zm4.80693-9.61965c4.64589,0,5.25477-3.64573,5.25477-6.58084,0-4.14248-1.43741-7.46024-5.4216-7.46024-4.36969,0-5.19243,3.20848-5.19243,6.414C246.43231,29.129,247.81219,32.556,251.79157,32.556Z" transform="translate(-0.5 -0.66319)"/><path class="cls-1" d="M265.39541,29.96037c0-8.29732,4.47425-13.26823,11.547-13.26823,7.08339,0,11.55756,4.97091,11.55756,13.26823,0,8.29152-4.47417,13.26527-11.55756,13.26527C269.86966,43.22564,265.39541,38.25189,265.39541,29.96037Zm11.547,11.43951c5.53187,0,6.64035-6.85126,6.64035-11.43951,0-4.59121-1.10848-11.44541-6.64035-11.44541-5.52608,0-6.62984,6.8542-6.62984,11.44541C270.3126,34.54862,271.41636,41.39988,276.94244,41.39988Z" transform="translate(-0.5 -0.66319)"/><g id="line"><path class="cls-1" d="M237.91643,52.20431H.5v1.40383H239.255A8.95474,8.95474,0,0,1,237.91643,52.20431Z" transform="translate(-0.5 -0.66319)"/><path class="cls-1" d="M288.05695,52.20431H266.221a12.59516,12.59516,0,0,1-1.64538,1.40383h23.48134Z" transform="translate(-0.5 -0.66319)"/></g></svg>